<?xml version="1.0" standalone="no"?><!DOCTYPE svg PUBLIC "-//W3C//DTD SVG 1.1//EN" "http://www.w3.org/Graphics/SVG/1.1/DTD/svg11.dtd"><svg t="1622598125773" class="icon" viewBox="0 0 1092 1024" version="1.1" xmlns="http://www.w3.org/2000/svg" p-id="1613" xmlns:xlink="http://www.w3.org/1999/xlink" width="213.28125" height="200"><defs><style type="text/css"></style></defs><path d="M162.181184-30.48798827l423.37081067 0c0.12661867 46.85322347-0.20216427 93.70644693 0.17130773 140.56073494 1.83012053 49.33452693 25.5982848 102.16862827 72.5366304 123.5097536 15.75287253 7.04596587 33.26032 8.3557792 50.30066027 8.1525504 50.089984 0.02128 100.16826347-0.08512213 150.25611946 0.05320106 0.08512213 89.9387392 0.07448213 179.88918187 0 269.83856107-49.03660053-4.99133547-99.5277216-0.67139947-145.86170133 16.81796053-61.73253227 22.89459947-115.66364267 66.16099947-151.330784 121.52960534-106.07466027 0.20216427-212.14931947-0.05320107-318.2229152 0.12661866-21.36134187-0.1596032-41.7129248 11.2499232-54.1768992 28.3328256-13.83656533 18.18948693-16.59345067 43.58667093-8.58986453 64.78947307 9.95075093 25.01307093 35.7097024 43.12701227 62.82954133 42.82908587 90.06535787 0.1383232 180.13284373 0.02128 270.19926507 0.05320106-6.33306987 72.0588832 11.3669664 146.43521067 53.302272 205.78539307-128.06377493 0.02128-256.12967893 0.02128-384.20409494 0-17.27442667 0.21280427-34.0487616-5.27862187-49.32175893-12.99598613-30.53748267-15.56241173-57.0284832-39.35930453-75.12327147-68.52313174-11.6436128-17.9575296-18.4459168-39.13692267-18.20119146-60.62594773-0.04149653-244.0902496 0.01170453-488.18156373-0.02128-732.28351787-1.51091413-41.39265387 19.339696-80.81792747 48.20453333-109.36355733 20.18985173-19.53122027 45.23484373-35.96400427 73.87730027-38.58150293M233.18455573 378.74833067c-23.0233472 3.41658027-43.37280213 19.89192427-52.27123306 41.28625066-8.67392213 22.06466133-5.41694507 48.83337173 9.74965013 67.34206614 12.70763627 16.42320747 32.95281707 26.854896 53.85769173 26.5250496 136.56745387 0.04149653 273.1487392 0.08512213 409.7278976-0.02128 32.4952864 0.33091093 62.43585173-26.17179307 66.6908832-58.24146987 7.4183744-38.978384-26.28989973-78.07168213-65.61834773-77.7290656-134.81287787-0.19152427-269.6257568-0.02128-404.4375712-0.08512213-5.9191648-0.01170453-11.8574816-0.01170453-17.70003627 0.9267648L233.18455573 378.74833067zM654.2262176-30.48798827l10.8243136 0c28.57861547 5.10837867 49.91867627 26.6846528 71.74818773 44.12932267 37.89201493 32.85705493 77.59180693 64.7032864 108.06544854 104.89252907 12.02666133 15.1144576 15.8060736 34.53821227 13.95360746 53.4427232-53.62254293 0.11704213-107.24508587 0.08512213-160.85805226 0.01170453-9.01334507 0.20216427-17.22122453-4.84237227-22.53176747-11.86705707-13.20985493-15.6571104-20.08344853-36.19915307-21.14960107-56.48476693-0.12661867-44.713472-0.02128-89.41630293-0.05320106-134.1201984L654.2262176-30.48798827zM802.06806827 580.2020832c7.74928533-0.54158827 15.8273536-0.23408533 23.3840512-0.90442027 25.1396896 0.5745728 50.49431253 3.89432747 74.27205226 12.30330667 58.26275093 17.508512 107.62919893 60.42378347 136.2397344 113.79202453 29.89800427 57.3700352 36.6151872 126.92420587 15.8060736 188.42371734-19.7653056 65.116128-70.59904213 119.54945707-133.23812266 145.57228693-59.3054944 24.90560533-128.469168 25.055632-187.91405014 0.07448213-53.20757333-21.75609493-97.63482347-64.28725333-122.2307968-116.20735786-26.18243307-55.85912107-31.08971093-121.82753173-11.0169024-180.37756907 22.71265173-73.87730027 85.38365333-133.21577813 159.45354134-154.11107733 12.11284693-3.1409984 24.5651168-5.6531584 36.7960704-7.60032214 2.7781664-0.4149696 5.9191648 0.21280427 8.4504768-0.96932586M789.21891627 679.49571947c-0.7778016 34.9319008 0.4362496 69.94998827-0.60542934 104.86060906-26.15157653 0.21280427-53.19586987-0.723536-78.79521813 0.9267648-3.17291947-1.39493547-6.60971627 0.30750293-9.9305344-0.48945066-13.43330027-0.33091093-29.73733653-0.10640213-38.81665173 12.155408-17.73195627 18.18948693-4.9487744 51.80412587 19.65890346 55.30370026 11.12224107 0.88314027 22.30938667-0.12661867 33.3252256 0.7990816 2.31957227-1.53219413 5.83297813 1.1927712 8.17489494-0.30750293 22.22320107 1.06402347 44.55386773 0.4149696 66.83026986 0.69267947-0.08512213 33.88915733-0.07448213 67.77831573-0.03298453 101.65683306-0.33091093 17.98732267 16.1880576 34.8999808 34.41052907 33.67528854 17.28613013 0.40432853 33.10071573-15.27299733 33.16668586-32.6123296 0.4149696-34.5062912 0.6607584-69.02215893 1.00124587-103.5305792 36.18638507-0.339424 72.4089472 0.53094827 108.5740512-0.44582614 14.86973227-3.68258667 27.16239893-17.59363307 26.7059328-33.30500906 0.50009067-14.13555627-9.54748587-27.04642027-22.39344427-32.0483968-10.04757653-2.99097067-20.7027104-1.31938987-30.9726688-1.71414187-27.29008213-0.03298453-54.59080427-0.07448213-81.89259093 0.03298453-0.39262507-34.51693227-0.54158827-69.034928-1.0214624-103.55079573 0.07448213-14.97507093-11.6106272-27.97105707-25.43868053-32.2601376-19.41417813-4.54444587-40.60634027 10.04757653-41.9459456 30.16507413L789.21891627 679.49571947z" p-id="1614"></path></svg>