<?xml version="1.0" standalone="no"?><!DOCTYPE svg PUBLIC "-//W3C//DTD SVG 1.1//EN" "http://www.w3.org/Graphics/SVG/1.1/DTD/svg11.dtd"><svg t="1622085481262" class="icon" viewBox="0 0 1024 1024" version="1.1" xmlns="http://www.w3.org/2000/svg" p-id="9613" xmlns:xlink="http://www.w3.org/1999/xlink" width="200" height="200"><defs><style type="text/css"></style></defs><path d="M66.133721 883.107109c0 41.215704 33.384341 74.607208 74.607208 74.607208l746.078223 0c41.215704 0 74.606185-33.391505 74.606185-74.607208L961.425338 677.93217c0-41.215704-33.390481-74.607208-74.606185-74.607208L662.993434 603.324962 662.993434 407.483598c0-25.739221-20.888749-46.635133-46.62797-46.635133-25.738198 0-46.62797 20.895913-46.62797 46.635133l0 195.841364L140.74093 603.324962c-41.215704 0-74.607208 33.391505-74.607208 74.613348L66.133721 883.107109 66.133721 883.107109 66.133721 883.107109zM159.390685 780.518616c0-25.738198 20.890796-46.630017 46.635133-46.630017 25.737174 0 46.626947 20.891819 46.626947 46.630017s-20.889773 46.632063-46.626947 46.632063C180.281481 827.151703 159.390685 806.257837 159.390685 780.518616L159.390685 780.518616zM327.260997 780.518616c0-25.738198 20.888749-46.630017 46.62797-46.630017 25.738198 0 46.63411 20.891819 46.63411 46.630017s-20.895913 46.632063-46.63411 46.632063C348.149746 827.151703 327.260997 806.257837 327.260997 780.518616L327.260997 780.518616 327.260997 780.518616zM616.364441 211.634048c-108.182908 0-195.841364 87.666642-195.841364 195.84955 0 25.738198 20.888749 46.62797 46.62797 46.62797 25.740244 0 46.62797-20.889773 46.62797-46.62797 0-56.704466 45.886073-102.585423 102.59054-102.585423 56.69935 0 102.579283 45.880957 102.579283 102.585423 0 25.738198 20.894889 46.62797 46.63411 46.62797 25.738198 0 46.62797-20.889773 46.62797-46.62797C812.212968 299.30069 724.547349 211.634048 616.364441 211.634048L616.364441 211.634048 616.364441 211.634048zM616.364441 62.421678c-190.620455 0-345.060897 154.439418-345.060897 345.06192 0 25.738198 20.888749 46.62797 46.63411 46.62797 25.739221 0 46.62797-20.889773 46.62797-46.62797 0-139.145084 112.655779-251.798816 251.797793-251.798816S868.163257 268.338514 868.163257 407.483598c0 25.738198 20.895913 46.62797 46.63411 46.62797 25.739221 0 46.62797-20.889773 46.62797-46.62797C961.425338 216.861096 807.003316 62.421678 616.364441 62.421678L616.364441 62.421678 616.364441 62.421678zM616.364441 62.421678" p-id="9614"></path></svg>