<?xml version="1.0" standalone="no"?><!DOCTYPE svg PUBLIC "-//W3C//DTD SVG 1.1//EN" "http://www.w3.org/Graphics/SVG/1.1/DTD/svg11.dtd"><svg t="1622085744882" class="icon" viewBox="0 0 1024 1024" version="1.1" xmlns="http://www.w3.org/2000/svg" p-id="778" xmlns:xlink="http://www.w3.org/1999/xlink" width="200" height="200"><defs><style type="text/css"></style></defs><path d="M209.95 937.62c-67.79 0-122.94-55.15-122.94-122.94V209.32c0-67.79 55.15-122.94 122.94-122.94h442.73c67.79 0 122.94 55.15 122.94 122.94v605.36c0 67.79-55.15 122.94-122.94 122.94H209.95z m60.6-294.9c-25.36 0-46 20.64-46 46s20.64 46 46 46h282.57c25.36 0 46-20.64 46-46s-20.64-46-46-46H270.55z m0-176.72c-25.36 0-46 20.64-46 46s20.64 46 46 46h282.57c25.36 0 46-20.64 46-46s-20.64-46-46-46H270.55z m0-176.72c-25.36 0-46 20.64-46 46s20.64 46 46 46h282.57c25.36 0 46-20.64 46-46s-20.64-46-46-46H270.55z" p-id="779"></path><path d="M652.68 109.39c55.1 0 99.94 44.83 99.94 99.94v605.36c0 55.1-44.83 99.94-99.94 99.94H209.95c-55.1 0-99.94-44.83-99.94-99.94V209.32c0-55.1 44.83-99.94 99.94-99.94h442.73m-382.13 294.9h282.57c38.05 0 69-30.95 69-69s-30.95-69-69-69H270.55c-38.05 0-69 30.95-69 69s30.95 69 69 69m0 176.72h282.57c38.05 0 69-30.95 69-69s-30.95-69-69-69H270.55c-38.05 0-69 30.95-69 69s30.95 69 69 69m0 176.72h282.57c38.05 0 69-30.95 69-69s-30.95-69-69-69H270.55c-38.05 0-69 30.95-69 69s30.95 69 69 69M652.68 63.38H209.95c-80.6 0-145.94 65.34-145.94 145.94v605.36c0 80.6 65.34 145.94 145.94 145.94h442.73c80.6 0 145.94-65.34 145.94-145.94V209.32c0-80.6-65.34-145.94-145.94-145.94z m-382.13 294.9c-12.7 0-23-10.3-23-23s10.3-23 23-23h282.57c12.7 0 23 10.3 23 23s-10.3 23-23 23H270.55z m0 176.72c-12.7 0-23-10.3-23-23s10.3-23 23-23h282.57c12.7 0 23 10.3 23 23s-10.3 23-23 23H270.55z m0 176.72c-12.7 0-23-10.3-23-23s10.3-23 23-23h282.57c12.7 0 23 10.3 23 23s-10.3 23-23 23H270.55z" p-id="780"></path><path d="M814.64 366.22c54.42 0 98.7 44.28 98.7 98.7v351c0 54.42-44.28 98.7-98.7 98.7H636.16v-548.4h178.48m0-46H590.16v640.39h224.48c79.91 0 144.7-64.78 144.7-144.7v-351c-0.01-79.9-64.79-144.69-144.7-144.69z" p-id="781"></path></svg>