<?xml version="1.0" standalone="no"?><!DOCTYPE svg PUBLIC "-//W3C//DTD SVG 1.1//EN" "http://www.w3.org/Graphics/SVG/1.1/DTD/svg11.dtd"><svg t="1622597369864" class="icon" viewBox="0 0 1024 1024" version="1.1" xmlns="http://www.w3.org/2000/svg" p-id="5054" xmlns:xlink="http://www.w3.org/1999/xlink" width="200" height="200"><defs><style type="text/css"></style></defs><path d="M855.139681 781.189124a130.152992 130.152992 0 0 0 26.507738-210.206359 132.538688 132.538688 0 0 0-93.042159-35.255291h-1.590465a132.538688 132.538688 0 0 1 18.555417 23.856963 119.814974 119.814974 0 0 1 5.831702 10.868173 98.608784 98.608784 0 0 1 79.523213 115.308658 99.669093 99.669093 0 0 1-98.343707 79.523213h-5.03647l10.868173 6.361857h-1.325387c5.831702 3.446006 11.928482 7.687244 17.495107 11.663405a100.464325 100.464325 0 0 1 12.458636 9.542785 252.883817 252.883817 0 0 1 23.326809 21.471268 185.554163 185.554163 0 0 1 128.562528 176.541532 17.495107 17.495107 0 0 0 15.374487 15.374488 17.230029 17.230029 0 0 0 18.555417-15.374488 220.544377 220.544377 0 0 0-157.721039-209.676204z" p-id="5055"></path><path d="M896.756829 989.009786a238.569638 238.569638 0 0 0-87.210457-183.433544l-11.398327-8.747553a246.52196 246.52196 0 0 0-42.41238-24.652196 175.7463 175.7463 0 0 0-29.158511-10.868173 111.862653 111.862653 0 0 0 12.723714-7.952321 145.527479 145.527479 0 0 0 43.737767-192.446175 139.960854 139.960854 0 0 0-24.652196-30.748975 148.973485 148.973485 0 0 0-253.413972 102.850022 146.852866 146.852866 0 0 0 76.872439 130.152991 238.569638 238.569638 0 0 0-168.854288 226.376079 18.555416 18.555416 0 0 0 18.290339 18.555416h447.185533a18.555416 18.555416 0 0 0 18.290339-19.085571z" p-id="5056"></path><path d="M372.698857 1003.589042a261.63137 261.63137 0 0 1 127.23714-222.399918h-174.420913a23.856964 23.856964 0 1 1 0-47.448851h201.458806a160.63689 160.63689 0 0 1-53.015476-120.875283 162.757509 162.757509 0 0 1 28.628357-88.535844h-177.071687a23.856964 23.856964 0 1 1 0-47.44885h227.436388a162.492431 162.492431 0 0 1 166.998747 0h71.835969a23.591886 23.591886 0 0 1 22.001422 32.604517A144.997325 144.997325 0 0 1 885.888657 545.535336a142.346551 142.346551 0 0 1 24.917273 31.014053V91.457791A91.451695 91.451695 0 0 0 818.293926 0.006097h-715.708915A91.451695 91.451695 0 0 0 11.133316 91.457791v841.090514a91.451695 91.451695 0 0 0 91.451695 91.451695h289.994649a20.410958 20.410958 0 0 1-19.880803-20.410958zM325.515084 225.056789h466.271104a23.856964 23.856964 0 0 1 0 47.44885H325.515084a23.856964 23.856964 0 1 1 0-47.44885z m-113.983272 556.662489H124.586433a23.856964 23.856964 0 1 1 0-47.44885h86.945379a23.856964 23.856964 0 1 1 0 47.44885z m0-256.859977H124.586433a23.856964 23.856964 0 1 1 0-47.44885h86.945379a23.856964 23.856964 0 1 1 0 47.44885z m0-251.823507H124.586433a23.856964 23.856964 0 0 1 0-47.44885h86.945379a23.856964 23.856964 0 0 1 0 47.44885z" p-id="5057"></path></svg>