<?xml version="1.0" standalone="no"?><!DOCTYPE svg PUBLIC "-//W3C//DTD SVG 1.1//EN" "http://www.w3.org/Graphics/SVG/1.1/DTD/svg11.dtd"><svg t="1621412280842" class="icon" viewBox="0 0 1024 1024" version="1.1" xmlns="http://www.w3.org/2000/svg" p-id="6107" xmlns:xlink="http://www.w3.org/1999/xlink" width="200" height="200"><defs><style type="text/css"></style></defs><path d="M810.666667 213.333333h-128a42.666667 42.666667 0 0 1 0-85.333333h170.666666a42.666667 42.666667 0 0 1 42.666667 42.666667v682.666666a42.666667 42.666667 0 0 1-42.666667 42.666667h-170.666666a42.666667 42.666667 0 0 1 0-85.333333h128V213.333333z m-230.997334 256L396.501333 286.165333a42.666667 42.666667 0 1 1 60.330667-60.330666l256 256c26.88 26.88 7.850667 72.832-30.165333 72.832H170.666667a42.666667 42.666667 0 0 1 0-85.333334h409.002666z m-52.309333 159.232a42.666667 42.666667 0 1 1 54.613333 65.536l-128 106.666667a42.666667 42.666667 0 1 1-54.613333-65.536l128-106.666667z" p-id="6108"></path></svg>