<?xml version="1.0" standalone="no"?><!DOCTYPE svg PUBLIC "-//W3C//DTD SVG 1.1//EN" "http://www.w3.org/Graphics/SVG/1.1/DTD/svg11.dtd"><svg t="1622597068763" class="icon" viewBox="0 0 1024 1024" version="1.1" xmlns="http://www.w3.org/2000/svg" p-id="8650" xmlns:xlink="http://www.w3.org/1999/xlink" width="200" height="200"><defs><style type="text/css"></style></defs><path d="M954.181818 930.909091a93.090909 93.090909 0 0 1-93.090909 93.090909H162.909091a93.090909 93.090909 0 0 1-93.090909-93.090909v-46.545455h2.490182A445.696 445.696 0 0 1 69.818182 837.818182a441.134545 441.134545 0 0 1 224.535273-384.209455 279.272727 279.272727 0 1 1 435.2 0A441.134545 441.134545 0 0 1 954.181818 837.818182a445.696 445.696 0 0 1-2.490182 46.545454H954.181818v46.545455z m-93.090909-93.090909a348.951273 348.951273 0 0 0-206.917818-318.626909c-0.884364 0.512-1.652364 1.186909-2.536727 1.698909V512a46.545455 46.545455 0 1 1 0-93.090909v-16.779636a186.181818 186.181818 0 1 0-279.272728 0V418.909091a46.545455 46.545455 0 1 1 0 93.090909v8.890182c-0.884364-0.512-1.652364-1.163636-2.536727-1.698909A345.227636 345.227636 0 0 0 166.376727 884.363636H162.909091a46.545455 46.545455 0 0 0 46.545454 46.545455h605.09091a46.545455 46.545455 0 0 0 46.545454-46.545455h-3.467636A348.858182 348.858182 0 0 0 861.090909 837.818182z m-139.636364 46.545454h-186.181818a23.272727 23.272727 0 1 1 0-46.545454h186.181818a23.272727 23.272727 0 1 1 0 46.545454z m0-93.090909h-186.181818a23.272727 23.272727 0 0 1 0-46.545454h186.181818a23.272727 23.272727 0 0 1 0 46.545454z m0-93.090909h-186.181818a23.272727 23.272727 0 0 1 0-46.545454h186.181818a23.272727 23.272727 0 0 1 0 46.545454z" p-id="8651"></path></svg>