<?xml version="1.0" standalone="no"?><!DOCTYPE svg PUBLIC "-//W3C//DTD SVG 1.1//EN" "http://www.w3.org/Graphics/SVG/1.1/DTD/svg11.dtd"><svg t="1622389592041" class="icon" viewBox="0 0 1024 1024" version="1.1" xmlns="http://www.w3.org/2000/svg" p-id="1407" xmlns:xlink="http://www.w3.org/1999/xlink" width="300" height="300"><defs><style type="text/css"></style></defs><path d="M247.91419259 594.85044978c-7.76722963-18.12353539-28.47984238-28.47984238-46.60337777-23.30168888-23.30168889 7.76722963-33.65799466 31.06891852-25.89076504 51.78153005 54.37060741 134.63197984 183.82443498 227.83873539 336.57995022 227.83873661s282.20934281-93.20675555 336.57995022-227.83873661c7.76722963-20.71261275-5.17815349-46.60337778-25.89076504-51.78153005-18.12353539-5.17815349-38.83614815 5.17815349-46.60337777 23.30168888-44.01430164 106.15213868-144.98828683 178.64628148-264.08580741 178.64628149-116.50844445 0-220.07150577-75.08322016-264.08580741-178.64628149z" p-id="1408"></path><path d="M972.85562429 615.56306132c-18.12353539-5.17815349-38.83614815 5.17815349-46.60337778 23.3016889-59.5487609 168.28997571-222.66058311 289.97657244-411.66317037 289.97657364S162.47466667 807.15472592 97.74775349 638.86475022c-5.17815349-18.12353539-25.89076502-28.47984238-46.60337778-23.3016889-20.71261275 7.76722963-33.65799466 31.06891852-25.89076624 51.78153127C97.74775349 864.11440947 291.92849423 1006.51362016 512 1006.51362016c222.66058311 0 414.25224651-142.39920947 484.15731317-339.16902757 7.76722963-23.30168889-5.17815349-46.60337778-23.30168888-51.78153127z" p-id="1409"></path><path d="M512 695.82443498c80.26137244 0 150.1664391-46.60337778 183.82443498-113.91936831 12.94538311-20.71261275 0-46.60337778-23.3016889-54.37060742-15.53445925-5.17815349-36.24707201 2.58907614-44.01430163 18.12353541-20.71261275 44.01430164-64.72691317 72.49414281-116.50844445 72.49414402s-93.20675555-28.47984238-116.50844445-72.49414402c-7.76722963-15.53445925-25.89076502-23.30168889-44.01430163-18.12353541-23.30168889 7.76722963-33.65799466 33.65799466-23.3016889 54.37060742 36.24707201 67.31599053 106.15213868 113.91936831 183.82443498 113.91936831zM900.36148148 123.63851852h-51.78153126V71.85698725c0-28.47984238-23.30168889-51.78153127-51.78153006-51.78153006H227.20157984c-28.47984238 0-51.78153127 23.30168889-51.78153006 51.78153006v51.78153127H123.63851852c-56.95968355 0-103.56306132 46.60337778-103.56306133 103.56306132v103.56306254c0 56.95968355 46.60337778 103.56306132 103.56306133 103.56306132h776.72296296c56.95968355 0 103.56306132-46.60337778 103.56306133-103.56306132v-103.56306254c0-56.95968355-46.60337778-103.56306132-103.56306133-103.56306132z m-673.15990164 207.12612386c-28.47984238 0-51.78153127-23.30168889-51.78153006-51.78153127s23.30168889-51.78153127 51.78153006-51.78153127 51.78153127 23.30168889 51.78153127 51.78153127-23.30168889 51.78153127-51.78153127 51.78153127z m181.23535884 0c-28.47984238 0-51.78153127-23.30168889-51.78153127-51.78153127s23.30168889-51.78153127 51.78153127-51.78153127 51.78153127 23.30168889 51.78153005 51.78153127-23.30168889 51.78153127-51.78153005 51.78153127z m181.23535762 0c-28.47984238 0-51.78153127-23.30168889-51.78153128-51.78153127s23.30168889-51.78153127 51.78153128-51.78153127 51.78153127 23.30168889 51.78153126 51.78153127-23.30168889 51.78153127-51.78153126 51.78153127z m181.23535762 0c-28.47984238 0-51.78153127-23.30168889-51.78153006-51.78153127s23.30168889-51.78153127 51.78153006-51.78153127 51.78153127 23.30168889 51.78153126 51.78153127-23.30168889 51.78153127-51.78153126 51.78153127z" p-id="1410"></path></svg>